# xmcd
#
# Track frame offsets:
# 150
# 19826
# 37842
# 52327
# 66823
# 87223
# 105525
# 107625
# 122250
# 135221
# 149637
# 168176
# 169836
# 178209
# 197284
# 211741
#
# Disc length: 2963 seconds
#
# Revision: 0
# Processed by: cddbd v1.4PL0 Copyright (c) Steve Scherf et al.
# Submitted via: Axialis_AX_CDPlayer 2.6
#
DISCID=d20b9110
DTITLE=Cover crops - Cheap guitars, don't give up
DYEAR=1900
DGENRE=
TTITLE0=How many times
TTITLE1=Things are getting complicated
TTITLE2=Hight time to leave
TTITLE3=Bleeding eyes
TTITLE4=The lineman song
TTITLE5=Lost on your way home
TTITLE6=Flying
TTITLE7=Trapped in love
TTITLE8=Cheap guitars
TTITLE9=Strange birthday
TTITLE10=Red and black hawk
TTITLE11=Floating
TTITLE12=Lullabye
TTITLE13=One more tango
TTITLE14=Summerdays blues
TTITLE15=Lino's trouble in love
EXTD=
EXTT0=
EXTT1=
EXTT2=
EXTT3=
EXTT4=
EXTT5=
EXTT6=
EXTT7=
EXTT8=
EXTT9=
EXTT10=
EXTT11=
EXTT12=
EXTT13=
EXTT14=
EXTT15=
PLAYORDER=
